<svg width="13" height="15" viewBox="0 0 13 15" fill="none" xmlns="http://www.w3.org/2000/svg">
<path d="M2.33979 14.0704C1.92424 14.0704 1.56924 13.9233 1.27479 13.629C0.980486 13.3345 0.833333 12.9795 0.833333 12.564V1.98708H0V0.737083H3.75V0H8.75V0.737083H12.5V1.98708H11.6667V12.564C11.6667 12.9849 11.5208 13.3413 11.2292 13.6329C10.9375 13.9246 10.5812 14.0704 10.1602 14.0704H2.33979ZM10.4167 1.98708H2.08333V12.564C2.08333 12.6388 2.10736 12.7003 2.15542 12.7483C2.20347 12.7964 2.26493 12.8204 2.33979 12.8204H10.1602C10.2244 12.8204 10.2831 12.7937 10.3365 12.7402C10.3899 12.6869 10.4167 12.6281 10.4167 12.564V1.98708ZM4.08667 11.1538H5.33646V3.65375H4.08667V11.1538ZM7.16354 11.1538H8.41333V3.65375H7.16354V11.1538Z" fill="#081423"/>
</svg>
